<?xml version="1.0" standalone="no"?><!DOCTYPE svg PUBLIC "-//W3C//DTD SVG 1.1//EN" "http://www.w3.org/Graphics/SVG/1.1/DTD/svg11.dtd"><svg t="1653629323567" class="icon" viewBox="0 0 2513 1024" version="1.1" xmlns="http://www.w3.org/2000/svg" p-id="2218" width="981.640625" height="400" xmlns:xlink="http://www.w3.org/1999/xlink"><defs><style type="text/css">@font-face { font-family: feedback-iconfont; src: url("//at.alicdn.com/t/font_1031158_u69w8yhxdu.woff2?t=1630033759944") format("woff2"), url("//at.alicdn.com/t/font_1031158_u69w8yhxdu.woff?t=1630033759944") format("woff"), url("//at.alicdn.com/t/font_1031158_u69w8yhxdu.ttf?t=1630033759944") format("truetype"); }
</style></defs><path d="M2513.454545 0l-70.004363 770.048A279.272727 279.272727 0 0 1 2165.294545 1024H0l70.004364-770.048A279.272727 279.272727 0 0 1 348.16 0H2513.454545zM869.096727 164.677818H452.887273l-14.056728 0.558546a162.909091 162.909091 0 0 0-147.083636 137.774545l-63.208727 414.626909-1.489455 13.963637a162.909091 162.909091 0 0 0 162.536728 173.521454h486.120727l342.202182-559.010909 227.607272 559.010909h102.213819l10.891636-0.558545a107.054545 107.054545 0 0 0 95.697454-97.000728l44.683637-503.342545h378.88l8.378182 0.837818a45.614545 45.614545 0 0 1-8.378182 90.577455h-106.868364l-13.125818 0.558545a144.104727 144.104727 0 0 0-73.541818 258.792727l314.181818 236.171637 83.874909-111.709091-314.088727-236.078546-1.303273-1.582545-0.465454-2.048c0-2.420364 1.954909-4.468364 4.468363-4.468364h106.961455l13.870545-0.465454a185.250909 185.250909 0 0 0-13.963636-370.129455H1571.374545l-49.710545 557.335273-198.656-488.261818-5.957818-12.288a107.054545 107.054545 0 0 0-37.236364-38.632728l-10.24-5.585454a107.054545 107.054545 0 0 0-137.029818 40.96l-335.127273 547.281454h-407.738182l-3.537454-0.279272a23.272727 23.272727 0 0 1-19.549091-26.530909l63.301818-414.626909 1.489455-5.399273a23.272727 23.272727 0 0 1 21.410909-14.336h416.302545v-139.636364z" fill="#f4ea2a" p-id="2219"></path></svg>